<svg xmlns="http://www.w3.org/2000/svg" preserveAspectRatio="xMidYMid" width="28" height="30.031" viewBox="0 0 28 30.031"><defs><style>.cls-1{fill:#bb2821;fill-rule:evenodd}</style></defs><path d="M27.677 29.712a1.05 1.05 0 0 1-.733.304c-.294 0-.566-.119-.764-.335l-7.535-8.099c-2.018 1.582-4.503 2.451-7.024 2.451-6.41 0-11.625-5.389-11.625-12.013C-.004 5.398 5.211.01 11.621.01c6.409 0 11.623 5.388 11.623 12.01 0 3.008-1.078 5.871-3.041 8.091l7.503 8.062c.402.43.389 1.121-.029 1.539zM21.133 12.02c0-5.419-4.267-9.828-9.512-9.828-5.246 0-9.513 4.409-9.513 9.828 0 5.42 4.267 9.829 9.513 9.829 5.245 0 9.512-4.409 9.512-9.829zm-5.815 1.092h-2.642v2.729c0 .602-.473 1.091-1.055 1.091-.583 0-1.056-.489-1.056-1.091v-2.729H7.92c-.582 0-1.055-.49-1.055-1.092 0-.601.473-1.09 1.055-1.09h2.645V8.197c0-.601.473-1.09 1.056-1.09.582 0 1.055.489 1.055 1.09v2.733h2.642c.582 0 1.055.489 1.055 1.09 0 .602-.473 1.092-1.055 1.092z" class="cls-1"/></svg>