<?xml version="1.0" encoding="utf-8"?>
<!-- Generator: Adobe Illustrator 18.1.1, SVG Export Plug-In . SVG Version: 6.00 Build 0)  -->
<svg version="1.1" id="Layer_1" xmlns="http://www.w3.org/2000/svg" xmlns:xlink="http://www.w3.org/1999/xlink" x="0px" y="0px"
	 viewBox="-298 374 15 45" enable-background="new -298 374 15 45" xml:space="preserve">
<g>
	<polygon fill="#D0011B" points="-288.7,381.8 -285.6,378.7 -287.1,377.1 -290.2,380.2 -293.3,377.1 -294.9,378.7 -291.8,381.8 
		-294.9,384.9 -293.3,386.4 -290.2,383.3 -287.1,386.4 -285.6,384.9 	"/>
	<polygon fill="#DDDDDD" points="-294,417 -291,413 -297,413 	"/>
	<polygon fill="#333333" points="-287,417 -284,413 -290,413 	"/>
	<polygon fill="#DDDDDD" points="-294,407 -291,411 -297,411 	"/>
	<polygon fill="#333333" points="-287,407 -284,411 -290,411 	"/>
	<polygon fill="#EC2B43" points="-288.7,397.8 -285.6,394.7 -287.1,393.1 -290.2,396.2 -293.3,393.1 -294.9,394.7 -291.8,397.8 
		-294.9,400.9 -293.3,402.4 -290.2,399.3 -287.1,402.4 -285.6,400.9 	"/>
</g>
</svg>
