<svg xmlns="http://www.w3.org/2000/svg" xmlns:xlink="http://www.w3.org/1999/xlink" preserveAspectRatio="xMidYMid" width="28" height="30.031" viewBox="0 0 28 30.031">
  <defs>
    <style>
      .cls-1 {
        fill: #bb2821;
        fill-rule: evenodd;
      }
    </style>
  </defs>
  <path d="M27.677,29.712 C27.474,29.909 27.214,30.016 26.944,30.016 C26.650,30.016 26.378,29.897 26.180,29.681 L18.645,21.582 C16.627,23.164 14.142,24.033 11.621,24.033 C5.211,24.033 -0.004,18.644 -0.004,12.020 C-0.004,5.398 5.211,0.010 11.621,0.010 C18.030,0.010 23.244,5.398 23.244,12.020 C23.244,15.028 22.166,17.891 20.203,20.111 L27.706,28.173 C28.108,28.603 28.095,29.294 27.677,29.712 ZM21.133,12.020 C21.133,6.601 16.866,2.192 11.621,2.192 C6.375,2.192 2.108,6.601 2.108,12.020 C2.108,17.440 6.375,21.849 11.621,21.849 C16.866,21.849 21.133,17.440 21.133,12.020 ZM15.318,13.112 L12.676,13.112 L12.676,15.841 C12.676,16.443 12.203,16.932 11.621,16.932 C11.038,16.932 10.565,16.443 10.565,15.841 L10.565,13.112 L7.920,13.112 C7.338,13.112 6.865,12.622 6.865,12.020 C6.865,11.419 7.338,10.930 7.920,10.930 L10.565,10.930 L10.565,8.197 C10.565,7.596 11.038,7.107 11.621,7.107 C12.203,7.107 12.676,7.596 12.676,8.197 L12.676,10.930 L15.318,10.930 C15.900,10.930 16.373,11.419 16.373,12.020 C16.373,12.622 15.900,13.112 15.318,13.112 Z" class="cls-1"/>
</svg>
